<svg width="20" height="20" viewBox="0 0 20 20" fill="none" xmlns="http://www.w3.org/2000/svg">
<path fill-rule="evenodd" clip-rule="evenodd" d="M6.11937 0H13.4626C16.8417 0 19.582 2.74025 19.582 6.11937V13.4626C19.582 16.8417 16.8417 19.582 13.4626 19.582H6.11937C2.74025 19.582 0 16.8417 0 13.4626V6.11937C0 2.74025 2.74025 0 6.11937 0ZM13.4627 17.7462C15.8247 17.7462 17.7462 15.8248 17.7462 13.4627V6.11944C17.7462 3.75737 15.8247 1.83588 13.4627 1.83588H6.11942C3.75734 1.83588 1.83586 3.75737 1.83586 6.11944V13.4627C1.83586 15.8248 3.75734 17.7462 6.11942 17.7462H13.4627Z" fill="white"/>
<path fill-rule="evenodd" clip-rule="evenodd" d="M4.89557 9.791C4.89557 7.08747 7.08753 4.89551 9.79106 4.89551C12.4946 4.89551 14.6866 7.08747 14.6866 9.791C14.6866 12.4945 12.4946 14.6865 9.79106 14.6865C7.08753 14.6865 4.89557 12.4945 4.89557 9.791ZM6.73142 9.79106C6.73142 11.4776 8.1046 12.8507 9.7911 12.8507C11.4776 12.8507 12.8508 11.4776 12.8508 9.79106C12.8508 8.10334 11.4776 6.73138 9.7911 6.73138C8.1046 6.73138 6.73142 8.10334 6.73142 9.79106Z" fill="white"/>
<circle cx="15.0536" cy="4.52855" r="0.652325" fill="white"/>
</svg>
